<!DOCTYPE svg PUBLIC "-//W3C//DTD SVG 20010904//EN" "http://www.w3.org/TR/2001/REC-SVG-20010904/DTD/svg10.dtd">
<svg version="1.0" xmlns="http://www.w3.org/2000/svg" width="1600px" height="1231px" viewBox="0 0 16000 12310" preserveAspectRatio="xMidYMid meet">
<g id="layer101" fill="#151553" stroke="none">
 <path d="M1595 11604 c-116 -13 -203 -29 -344 -64 -54 -13 -215 -81 -219 -92 -2 -4 -9 -8 -16 -8 -42 0 -232 -170 -295 -263 -79 -117 -139 -292 -148 -433 -8 -130 -22 -124 293 -124 234 0 253 1 276 20 18 14 27 32 31 68 15 128 127 263 272 326 22 9 49 21 60 26 121 55 446 52 580 -5 17 -7 52 -21 80 -31 68 -26 146 -104 168 -168 20 -58 23 -199 5 -257 -6 -22 -27 -57 -46 -80 -78 -91 -177 -130 -517 -204 -44 -10 -123 -29 -175 -42 -52 -14 -113 -29 -135 -34 -62 -15 -178 -49 -200 -58 -11 -5 -42 -17 -70 -26 -69 -25 -197 -88 -262 -131 -160 -107 -268 -275 -294 -458 -27 -186 -18 -349 28 -486 87 -263 346 -471 683 -548 157 -37 498 -40 670 -7 123 23 187 45 324 110 295 140 480 399 521 727 7 53 5 59 -19 83 l-26 26 -255 -3 c-218 -3 -257 -5 -270 -19 -9 -9 -25 -50 -36 -90 -24 -93 -55 -167 -83 -198 -39 -43 -120 -88 -196 -107 -108 -27 -446 -27 -535 0 -123 38 -181 83 -223 174 -22 48 -24 64 -20 140 6 101 20 133 82 190 84 78 178 115 451 181 503 122 717 193 897 298 197 114 304 301 327 572 25 286 -41 497 -211 677 -62 65 -176 154 -197 154 -5 0 -11 3 -13 8 -5 11 -127 68 -188 87 -140 43 -196 55 -304 70 -140 18 -275 18 -451 -1z"/>
 <path d="M13945 11604 c-248 -41 -476 -140 -628 -273 -187 -163 -335 -398 -413 -656 -112 -368 -101 -891 27 -1280 23 -72 23 -71 89 -208 78 -163 230 -350 352 -433 24 -16 45 -31 48 -35 27 -30 203 -116 315 -154 279 -95 705 -84 970 23 278 113 482 298 616 559 21 42 39 83 39 92 0 10 4 21 9 27 17 19 60 204 61 262 l0 43 -269 -3 -269 -3 -44 -30 c-28 -20 -53 -49 -70 -84 -89 -175 -162 -256 -300 -333 -135 -76 -265 -94 -437 -62 -259 49 -440 232 -519 524 -50 188 -57 244 -56 485 0 196 3 246 22 335 36 176 51 220 110 340 77 155 210 247 401 275 112 17 309 19 400 5 88 -15 135 -41 216 -124 67 -67 102 -125 169 -276 19 -44 69 -89 115 -105 35 -12 96 -15 289 -15 l245 0 -7 54 c-3 30 -23 108 -45 174 -161 493 -501 796 -986 877 -109 18 -338 18 -450 -1z"/>
 <path d="M2830 11515 c0 -3 25 -76 57 -163 31 -86 69 -195 85 -242 16 -47 33 -94 38 -105 4 -11 31 -85 60 -165 53 -151 112 -314 174 -486 20 -56 36 -104 36 -108 0 -5 6 -22 14 -39 8 -18 32 -84 54 -147 23 -63 57 -160 77 -215 20 -55 51 -143 70 -195 113 -320 185 -522 231 -650 19 -52 46 -131 61 -175 32 -100 66 -151 123 -190 l45 -30 275 0 275 0 46 32 c56 39 77 73 117 189 33 96 114 327 163 464 17 47 44 126 61 175 16 50 34 99 38 110 5 11 21 54 36 95 25 73 38 111 144 410 28 80 62 179 76 220 13 41 29 84 34 95 5 11 21 54 34 95 23 71 59 172 177 505 28 77 56 158 64 180 7 22 36 105 64 185 28 79 51 148 51 152 0 4 -124 8 -276 8 -273 0 -276 0 -328 -25 -52 -25 -92 -68 -115 -125 -5 -14 -26 -79 -46 -145 -55 -181 -74 -223 -109 -249 -77 -58 -56 -56 -565 -56 -342 0 -472 3 -477 11 -4 7 -40 108 -80 226 -81 241 -108 286 -200 333 -48 25 -53 25 -316 28 -148 2 -268 0 -268 -3z m1740 -1109 c0 -2 -11 -37 -24 -77 -22 -70 -62 -195 -126 -404 -16 -49 -52 -164 -80 -255 -76 -241 -85 -270 -101 -322 -15 -53 -24 -60 -34 -25 -27 92 -159 505 -236 739 -39 117 -39 185 0 247 31 48 74 79 125 92 31 7 476 12 476 5z"/>
 <path d="M5720 10060 l0 -1461 833 3 832 3 80 24 c287 84 489 259 575 495 50 138 55 166 54 326 -1 145 -3 161 -31 245 -47 139 -94 216 -182 298 -61 56 -115 90 -176 113 l-30 11 40 13 c100 32 203 123 245 215 51 112 53 126 57 668 l4 507 -256 0 c-277 0 -292 -2 -334 -56 -20 -26 -21 -37 -21 -393 0 -409 -9 -482 -67 -565 -47 -67 -132 -103 -273 -116 -152 -13 -574 -13 -623 1 -51 14 -85 45 -108 97 -18 41 -19 76 -19 538 l0 494 -300 0 -300 0 0 -1460z m1503 -204 c112 -22 165 -53 219 -127 94 -130 92 -340 -4 -475 -36 -51 -71 -77 -140 -105 -50 -21 -72 -22 -396 -27 -300 -3 -350 -2 -394 13 -87 28 -140 83 -173 179 -11 31 -15 102 -15 299 l0 257 414 0 c319 0 432 -3 489 -14z"/>
 <path d="M9097 11496 c-63 -31 -92 -59 -119 -115 l-23 -46 -5 -1020 -5 -1020 -22 -40 c-26 -48 -55 -76 -108 -103 -37 -18 -64 -20 -290 -24 l-250 -3 -54 -30 c-120 -66 -154 -149 -149 -360 l3 -130 1095 0 1095 0 41 22 c52 28 99 76 124 129 18 37 20 58 18 205 l-3 164 -355 5 c-395 6 -386 4 -450 76 -70 80 -65 -9 -68 1212 l-3 1102 -212 0 c-202 -1 -214 -2 -260 -24z"/>
 <path d="M10740 11501 c-63 -26 -126 -100 -140 -165 -8 -36 -10 -457 -8 -1391 l3 -1340 1073 -3 1072 -2 0 238 0 239 -26 24 -26 24 -698 3 -699 2 -34 33 c-49 45 -57 87 -57 290 0 189 9 235 48 256 14 8 231 11 696 11 l676 0 0 270 0 270 -695 0 -694 0 -16 30 c-12 24 -15 75 -15 282 0 145 5 269 11 291 11 42 56 92 94 107 16 6 294 10 729 10 l703 0 34 23 34 23 3 247 2 247 -1012 -1 c-955 0 -1016 -1 -1058 -18z"/>
 <path d="M8080 7800 l0 -360 -390 0 -390 0 0 -65 0 -65 85 0 85 0 0 -55 0 -55 -535 0 -535 0 0 -220 0 -220 -1847 -2 -1848 -3 -85 -29 c-185 -62 -351 -174 -450 -305 -14 -18 -30 -38 -36 -44 -47 -52 -128 -230 -162 -357 -25 -95 -25 -443 1 -550 69 -289 163 -475 316 -628 141 -141 331 -245 491 -267 25 -3 68 -11 97 -17 l52 -11 10 -51 c6 -28 15 -80 21 -116 25 -143 80 -303 157 -455 44 -87 145 -242 201 -308 40 -48 171 -177 222 -220 122 -102 337 -223 475 -267 39 -12 80 -26 93 -31 13 -5 31 -9 41 -9 15 0 19 -11 24 -62 4 -35 13 -94 21 -133 8 -38 19 -97 26 -130 20 -101 90 -317 147 -450 78 -182 256 -483 350 -592 16 -17 47 -55 70 -85 79 -99 327 -335 437 -413 15 -11 47 -34 70 -51 22 -16 59 -41 81 -54 22 -13 42 -27 45 -30 12 -16 259 -146 324 -171 50 -20 102 -41 141 -60 103 -48 433 -128 610 -149 117 -13 497 -13 605 0 197 25 494 98 630 156 19 9 44 19 55 24 11 5 49 21 85 37 36 15 112 53 169 85 58 32 106 58 108 58 8 0 205 139 283 199 78 61 321 295 380 366 189 230 313 432 443 725 26 59 96 272 112 345 9 38 19 73 22 78 2 4 37 -23 78 -61 112 -107 266 -216 416 -294 349 -183 736 -249 1149 -199 114 14 295 58 375 91 11 4 49 20 85 34 68 28 241 115 250 125 3 3 16 12 30 19 81 42 271 200 376 312 95 103 105 115 174 217 151 221 251 456 305 716 l5 27 106 0 c97 0 293 27 369 50 17 5 55 17 85 26 83 25 315 131 342 157 7 7 33 25 58 42 261 171 504 507 596 820 50 174 58 231 57 415 -1 174 -4 197 -53 400 -18 78 -82 242 -131 335 -83 161 -169 277 -302 408 -150 147 -336 260 -536 326 l-94 31 -1589 0 -1588 0 0 560 0 560 -490 0 -490 0 0 130 0 130 -445 0 -445 0 0 -360z m750 190 l0 -30 -305 0 -305 0 0 30 0 30 305 0 305 0 0 -30z m0 -745 l0 -575 -305 0 -305 0 0 575 0 575 305 0 305 0 0 -575z m980 -180 l0 -705 -665 0 -665 0 0 85 0 85 243 2 242 3 3 612 2 613 418 3 c229 1 418 3 420 5 1 1 2 -315 2 -703z m-1730 190 l0 -55 -235 0 -235 0 0 55 0 55 235 0 235 0 0 -55z m0 -225 l0 -30 -770 0 -770 0 0 30 0 30 770 0 770 0 0 -30z m2 -332 l3 -163 128 -3 127 -3 0 -249 0 -250 640 0 640 0 0 -515 0 -515 -1540 0 -1540 0 0 930 0 930 770 0 770 0 2 -162z m5070 -287 c70 -24 199 -92 253 -134 280 -214 452 -529 496 -907 17 -148 -11 -347 -66 -475 -7 -16 -16 -41 -20 -54 -12 -38 -123 -220 -175 -286 -77 -97 -189 -198 -290 -261 -183 -114 -425 -184 -636 -184 l-51 0 -7 133 c-7 120 -34 294 -56 357 -5 14 -16 51 -25 84 -14 51 -19 58 -38 53 -28 -6 -291 -97 -296 -102 -2 -2 6 -40 18 -85 107 -394 71 -778 -106 -1135 -155 -311 -406 -561 -713 -707 -132 -62 -135 -63 -195 -82 -201 -61 -406 -84 -603 -67 -206 17 -384 66 -572 158 -63 31 -117 59 -120 63 -3 3 -23 17 -45 30 -107 64 -287 227 -373 340 -23 30 -45 60 -49 65 -12 15 -45 66 -63 96 -144 245 -264 439 -271 439 -11 0 -17 -45 -24 -195 -3 -71 -7 -146 -10 -165 -2 -19 -6 -86 -10 -149 -15 -299 -97 -612 -233 -891 -284 -581 -805 -1028 -1412 -1213 -171 -52 -202 -59 -405 -88 -90 -14 -417 -13 -515 0 -176 23 -215 32 -390 83 -57 16 -142 45 -185 63 -58 24 -259 119 -265 125 -3 3 -16 11 -29 18 -13 8 -39 22 -58 33 -46 26 -206 142 -273 197 -122 102 -297 289 -408 437 -77 103 -209 341 -265 480 -62 152 -130 392 -142 501 l-7 61 83 6 c134 11 302 50 434 102 73 29 156 66 165 75 3 3 27 17 54 31 158 85 390 290 507 449 145 196 251 425 303 654 17 73 43 293 35 300 -2 2 -79 7 -170 11 l-166 8 -7 -83 c-4 -45 -18 -126 -32 -179 -14 -53 -31 -114 -37 -136 -22 -85 -139 -294 -223 -398 -91 -114 -127 -149 -235 -231 -41 -31 -79 -61 -86 -66 -7 -6 -14 -10 -17 -10 -3 0 -28 -14 -56 -30 -29 -17 -79 -42 -113 -56 -34 -14 -71 -29 -82 -34 -170 -75 -512 -86 -705 -24 -92 30 -258 111 -321 155 -139 100 -286 257 -380 404 -79 125 -166 358 -183 491 l-6 41 77 7 c42 3 102 6 135 6 38 0 60 4 63 13 3 6 -1 82 -8 167 l-12 155 -255 2 c-290 2 -420 18 -552 71 -79 32 -95 43 -186 127 -128 118 -215 313 -243 545 -13 109 -6 269 16 350 55 207 227 382 426 435 46 13 321 15 1857 15 l1802 0 0 -775 0 -775 1680 0 1680 0 0 580 0 579 93 3 92 3 3 198 2 197 1574 0 c1520 0 1575 -1 1628 -19z m-3342 -216 l0 -25 -665 0 -665 0 0 25 0 25 665 0 665 0 0 -25z"/>
 </g>

</svg>